<mxfile host="app.diagrams.net" modified="2024-06-12T07:16:03.824Z" agent="Mozilla/5.0 (Macintosh; Intel Mac OS X 10_15_7) AppleWebKit/537.36 (KHTML, like Gecko) Chrome/125.0.0.0 Safari/537.36" etag="Jre3_kk5L59WWRhFzh9h" version="24.5.3" type="github">
  <diagram name="Page-1" id="4Xp_XVPBuNeT71tJYrbS">
    <mxGraphModel dx="1193" dy="671" grid="1" gridSize="10" guides="1" tooltips="1" connect="1" arrows="1" fold="1" page="1" pageScale="1" pageWidth="827" pageHeight="1169" math="0" shadow="0">
      <root>
        <mxCell id="0" />
        <mxCell id="1" parent="0" />
        <mxCell id="u7DHpCstifh5hbfAiXGN-1" value="" style="shape=actor;whiteSpace=wrap;html=1;" vertex="1" parent="1">
          <mxGeometry x="100" y="150" width="40" height="60" as="geometry" />
        </mxCell>
        <mxCell id="u7DHpCstifh5hbfAiXGN-2" value="&lt;font style=&quot;font-size: 22px;&quot;&gt;sveltekit&lt;/font&gt;" style="shape=note;whiteSpace=wrap;html=1;backgroundOutline=1;darkOpacity=0.05;" vertex="1" parent="1">
          <mxGeometry x="310" y="90" width="130" height="160" as="geometry" />
        </mxCell>
        <mxCell id="u7DHpCstifh5hbfAiXGN-3" value="" style="endArrow=classic;startArrow=classic;html=1;rounded=0;entryX=0;entryY=0.5;entryDx=0;entryDy=0;entryPerimeter=0;" edge="1" parent="1" target="u7DHpCstifh5hbfAiXGN-2">
          <mxGeometry width="50" height="50" relative="1" as="geometry">
            <mxPoint x="130" y="190" as="sourcePoint" />
            <mxPoint x="180" y="140" as="targetPoint" />
          </mxGeometry>
        </mxCell>
        <mxCell id="u7DHpCstifh5hbfAiXGN-4" value="" style="ellipse;shape=cloud;whiteSpace=wrap;html=1;" vertex="1" parent="1">
          <mxGeometry x="490" y="90" width="330" height="220" as="geometry" />
        </mxCell>
        <mxCell id="u7DHpCstifh5hbfAiXGN-5" value="&lt;font style=&quot;font-size: 20px;&quot;&gt;sql&lt;/font&gt;" style="shape=cylinder3;whiteSpace=wrap;html=1;boundedLbl=1;backgroundOutline=1;size=15;" vertex="1" parent="1">
          <mxGeometry x="690" y="150" width="60" height="80" as="geometry" />
        </mxCell>
        <mxCell id="u7DHpCstifh5hbfAiXGN-6" value="sanity" style="shape=cube;whiteSpace=wrap;html=1;boundedLbl=1;backgroundOutline=1;darkOpacity=0.05;darkOpacity2=0.1;" vertex="1" parent="1">
          <mxGeometry x="570" y="180" width="120" height="80" as="geometry" />
        </mxCell>
        <mxCell id="u7DHpCstifh5hbfAiXGN-7" value="" style="endArrow=classic;startArrow=classic;html=1;rounded=0;entryX=0.071;entryY=0.457;entryDx=0;entryDy=0;entryPerimeter=0;" edge="1" parent="1" target="u7DHpCstifh5hbfAiXGN-4">
          <mxGeometry width="50" height="50" relative="1" as="geometry">
            <mxPoint x="430" y="180" as="sourcePoint" />
            <mxPoint x="490" y="140" as="targetPoint" />
          </mxGeometry>
        </mxCell>
        <mxCell id="u7DHpCstifh5hbfAiXGN-8" value="&lt;font style=&quot;font-size: 22px;&quot;&gt;sanity studio&lt;/font&gt;" style="shape=note;whiteSpace=wrap;html=1;backgroundOutline=1;darkOpacity=0.05;" vertex="1" parent="1">
          <mxGeometry x="300" y="310" width="130" height="160" as="geometry" />
        </mxCell>
        <mxCell id="u7DHpCstifh5hbfAiXGN-9" value="" style="shape=actor;whiteSpace=wrap;html=1;" vertex="1" parent="1">
          <mxGeometry x="90" y="370" width="40" height="60" as="geometry" />
        </mxCell>
        <mxCell id="u7DHpCstifh5hbfAiXGN-10" value="" style="endArrow=classic;startArrow=classic;html=1;rounded=0;entryX=0;entryY=0.5;entryDx=0;entryDy=0;entryPerimeter=0;" edge="1" parent="1" target="u7DHpCstifh5hbfAiXGN-8">
          <mxGeometry width="50" height="50" relative="1" as="geometry">
            <mxPoint x="130" y="410" as="sourcePoint" />
            <mxPoint x="180" y="360" as="targetPoint" />
          </mxGeometry>
        </mxCell>
        <mxCell id="u7DHpCstifh5hbfAiXGN-11" value="&lt;font style=&quot;font-size: 19px;&quot;&gt;user&lt;/font&gt;" style="text;html=1;align=center;verticalAlign=middle;whiteSpace=wrap;rounded=0;" vertex="1" parent="1">
          <mxGeometry x="100" y="221" width="60" height="30" as="geometry" />
        </mxCell>
        <mxCell id="u7DHpCstifh5hbfAiXGN-12" value="&lt;font style=&quot;font-size: 19px;&quot;&gt;admin&lt;/font&gt;" style="text;html=1;align=center;verticalAlign=middle;whiteSpace=wrap;rounded=0;" vertex="1" parent="1">
          <mxGeometry x="90" y="450" width="60" height="30" as="geometry" />
        </mxCell>
        <mxCell id="u7DHpCstifh5hbfAiXGN-13" value="" style="endArrow=classic;startArrow=classic;html=1;rounded=0;entryX=0.13;entryY=0.77;entryDx=0;entryDy=0;entryPerimeter=0;" edge="1" parent="1" target="u7DHpCstifh5hbfAiXGN-4">
          <mxGeometry width="50" height="50" relative="1" as="geometry">
            <mxPoint x="430" y="390" as="sourcePoint" />
            <mxPoint x="480" y="340" as="targetPoint" />
          </mxGeometry>
        </mxCell>
        <mxCell id="u7DHpCstifh5hbfAiXGN-14" value="login" style="swimlane;fontStyle=0;childLayout=stackLayout;horizontal=1;startSize=30;horizontalStack=0;resizeParent=1;resizeParentMax=0;resizeLast=0;collapsible=1;marginBottom=0;whiteSpace=wrap;html=1;" vertex="1" parent="1">
          <mxGeometry x="610" y="458.81" width="140" height="120" as="geometry" />
        </mxCell>
        <mxCell id="u7DHpCstifh5hbfAiXGN-15" value="user_id" style="text;strokeColor=none;fillColor=none;align=left;verticalAlign=middle;spacingLeft=4;spacingRight=4;overflow=hidden;points=[[0,0.5],[1,0.5]];portConstraint=eastwest;rotatable=0;whiteSpace=wrap;html=1;" vertex="1" parent="u7DHpCstifh5hbfAiXGN-14">
          <mxGeometry y="30" width="140" height="30" as="geometry" />
        </mxCell>
        <mxCell id="u7DHpCstifh5hbfAiXGN-16" value="username" style="text;strokeColor=none;fillColor=none;align=left;verticalAlign=middle;spacingLeft=4;spacingRight=4;overflow=hidden;points=[[0,0.5],[1,0.5]];portConstraint=eastwest;rotatable=0;whiteSpace=wrap;html=1;" vertex="1" parent="u7DHpCstifh5hbfAiXGN-14">
          <mxGeometry y="60" width="140" height="30" as="geometry" />
        </mxCell>
        <mxCell id="u7DHpCstifh5hbfAiXGN-17" value="password" style="text;strokeColor=none;fillColor=none;align=left;verticalAlign=middle;spacingLeft=4;spacingRight=4;overflow=hidden;points=[[0,0.5],[1,0.5]];portConstraint=eastwest;rotatable=0;whiteSpace=wrap;html=1;" vertex="1" parent="u7DHpCstifh5hbfAiXGN-14">
          <mxGeometry y="90" width="140" height="30" as="geometry" />
        </mxCell>
        <mxCell id="u7DHpCstifh5hbfAiXGN-21" value="" style="image;aspect=fixed;html=1;points=[];align=center;fontSize=12;image=img/lib/azure2/databases/Azure_SQL.svg;" vertex="1" parent="1">
          <mxGeometry x="320" y="630" width="214" height="153.81" as="geometry" />
        </mxCell>
        <mxCell id="u7DHpCstifh5hbfAiXGN-24" value="" style="shape=flexArrow;endArrow=classic;startArrow=classic;html=1;rounded=0;entryX=-0.004;entryY=0.169;entryDx=0;entryDy=0;entryPerimeter=0;" edge="1" parent="1" target="u7DHpCstifh5hbfAiXGN-16">
          <mxGeometry width="100" height="100" relative="1" as="geometry">
            <mxPoint x="460" y="660" as="sourcePoint" />
            <mxPoint x="560" y="560" as="targetPoint" />
          </mxGeometry>
        </mxCell>
      </root>
    </mxGraphModel>
  </diagram>
</mxfile>
